<?xml version="1.0" standalone="no"?>
<!DOCTYPE svg PUBLIC "-//W3C//DTD SVG 20010904//EN"
 "http://www.w3.org/TR/2001/REC-SVG-20010904/DTD/svg10.dtd">
<svg version="1.0" xmlns="http://www.w3.org/2000/svg"
 width="1280.000000pt" height="300.000000pt" viewBox="0 0 1280.000000 300.000000"
 preserveAspectRatio="xMidYMid meet">
<metadata>
Created by potrace 1.15, written by Peter Selinger 2001-2017
</metadata>
<g transform="translate(0.000000,300.000000) scale(0.100000,-0.100000)"
fill="#000000" stroke="none">
<path d="M4258 2988 c-3 -7 -3 -55 0 -105 l5 -93 -167 0 c-141 0 -166 2 -166
15 0 12 -15 15 -74 15 -53 0 -77 -4 -86 -15 -19 -23 -141 -20 -190 5 -21 11
-41 24 -45 30 -10 16 -82 12 -89 -5 -7 -18 -121 -22 -131 -4 -5 7 -94 10 -281
8 -200 -2 -278 1 -286 9 -18 18 -73 14 -90 -5 -26 -30 -38 -92 -38 -204 0
-136 18 -202 60 -219 25 -10 34 -10 52 2 20 13 61 14 292 6 186 -6 272 -6 279
1 15 15 106 14 161 -1 38 -10 49 -9 90 10 32 16 65 22 111 22 l65 0 0 -105 c0
-69 -4 -105 -11 -105 -6 0 -13 9 -16 20 -3 11 -14 20 -24 20 -12 0 -19 -7 -19
-20 0 -30 -47 -28 -52 3 -3 19 -10 22 -55 25 -46 3 -53 1 -53 -15 0 -11 -6
-31 -12 -46 l-13 -27 -162 0 -163 0 0 -44 c0 -44 0 -45 -37 -48 -30 -2 -38 -7
-38 -23 0 -16 8 -21 38 -23 31 -3 37 -7 37 -27 0 -13 -4 -27 -10 -30 -5 -3
-10 -20 -10 -36 0 -30 -30 -54 -38 -31 -3 9 -68 12 -244 12 -210 0 -244 -2
-270 -17 -23 -14 -32 -15 -35 -5 -3 8 -35 12 -109 12 -63 0 -104 4 -104 10 0
6 -56 10 -147 10 -181 0 -253 8 -253 26 0 9 -12 14 -35 14 -33 0 -35 2 -35 35
0 32 2 35 30 35 38 0 41 30 7 64 -22 21 -33 23 -206 29 -312 12 -1009 8 -1034
-4 -12 -7 -42 -27 -65 -47 l-44 -35 -181 7 c-100 4 -200 8 -221 9 -35 2 -43
-2 -62 -30 -20 -30 -22 -49 -28 -265 -14 -495 -37 -936 -52 -1011 -5 -25 -3
-27 24 -27 17 0 69 14 115 30 82 29 93 30 251 30 99 0 167 4 171 10 3 5 34 10
69 10 35 0 67 5 74 12 7 7 12 40 12 78 0 66 0 66 35 83 27 13 63 17 150 17
148 0 165 7 165 72 0 42 3 48 20 48 19 0 21 -5 18 -63 l-3 -62 -65 -3 c-86 -3
-101 -9 -76 -28 12 -9 44 -14 83 -14 l63 0 0 -35 0 -35 -49 0 c-51 0 -75 -15
-50 -31 8 -5 33 -9 57 -9 l43 0 -3 -245 -3 -245 48 0 47 0 0 245 0 245 28 0
c15 0 33 4 41 9 22 14 3 31 -35 31 -32 0 -34 2 -34 35 l0 35 48 0 c26 0 53 4
61 9 26 16 0 31 -55 31 l-54 0 0 65 0 65 178 0 c171 0 180 -1 229 -25 28 -14
113 -75 188 -136 193 -155 213 -169 251 -169 18 0 35 6 37 13 3 8 13 2 29 -16
23 -28 26 -29 163 -37 160 -10 248 -33 316 -82 39 -28 55 -33 144 -42 129 -12
210 -2 241 29 21 21 24 34 24 93 0 82 21 210 56 342 45 170 50 174 112 112 55
-55 91 -62 313 -62 223 0 238 5 287 85 15 24 34 45 43 45 13 0 14 -8 8 -52
-12 -82 -11 -88 10 -88 16 0 20 10 26 70 7 65 9 70 31 70 l24 0 0 -145 c0
-131 2 -145 18 -145 9 0 208 20 441 45 233 25 430 45 437 45 11 0 14 30 14
145 0 80 2 145 4 145 2 0 136 38 299 85 l295 85 216 0 216 0 0 -65 c0 -51 3
-65 15 -65 23 0 18 -15 -9 -29 -58 -31 -49 -108 15 -130 45 -16 163 -14 204 4
68 28 64 102 -6 128 -31 12 -39 27 -14 27 12 0 15 14 15 65 l0 65 131 0 c121
0 131 -1 124 -17 -16 -37 -16 -72 -1 -102 17 -32 79 -70 118 -72 13 0 46 -9
73 -19 45 -17 47 -19 20 -19 -40 -1 -50 -19 -135 -236 -71 -182 -74 -207 -24
-190 24 9 35 28 78 135 27 69 50 126 50 127 1 1 45 5 99 9 86 6 97 5 97 -10 0
-13 11 -16 65 -16 l65 0 0 -287 c1 -601 0 -631 -21 -725 -20 -94 -17 -118 21
-138 31 -17 67 -11 97 14 l28 24 -24 94 c-21 87 -22 106 -17 288 3 107 9 321
12 476 l6 281 42 20 c60 29 104 69 111 101 4 22 16 31 63 49 31 12 75 24 96
28 26 4 52 19 74 41 32 32 34 38 30 84 l-5 49 36 3 36 3 3 179 2 179 1588 -7
c1015 -4 1588 -10 1590 -16 2 -6 63 -10 148 -10 137 0 144 -1 144 -20 0 -20 7
-20 955 -20 l955 0 0 224 0 223 -46 7 c-26 3 -456 6 -955 6 -801 0 -909 -2
-909 -15 0 -13 -23 -15 -144 -15 l-145 0 -3 -42 -3 -43 -570 3 c-313 1 -1227
4 -2030 7 -803 3 -1700 8 -1992 11 l-533 6 0 39 0 39 -225 0 c-218 0 -225 -1
-225 -20 0 -16 -7 -20 -30 -20 -20 0 -30 5 -30 15 0 20 -20 19 -36 -2 -11 -15
-13 -4 -14 80 l0 97 62 0 c42 0 124 -16 254 -50 158 -41 207 -50 278 -50 51 0
86 -4 86 -10 0 -6 130 -10 370 -10 l370 0 0 285 0 285 -327 0 c-181 1 -344 3
-364 6 -21 3 -40 1 -44 -5 -3 -6 -40 -11 -86 -11 -62 0 -123 -11 -279 -50
-211 -53 -320 -65 -320 -35 0 22 -172 22 -190 0 -10 -12 -29 -15 -79 -13 l-66
3 0 100 0 100 -157 3 c-120 2 -157 0 -160 -10z m-8 -548 c10 -19 21 -20 171
-20 152 0 161 1 166 20 4 17 14 20 54 20 46 0 49 -2 49 -25 l0 -25 -377 2
-378 3 -3 23 -3 22 155 0 c145 0 156 -1 166 -20z m-2430 -400 c0 -27 -4 -40
-13 -40 -8 0 -22 -9 -32 -20 -17 -19 -31 -20 -389 -20 l-371 0 -10 23 c-7 16
-20 23 -47 25 -35 3 -38 6 -38 32 l0 30 168 3 c92 1 294 4 450 5 l282 2 0 -40z
m-930 0 c0 -28 -2 -30 -39 -30 -37 0 -71 -19 -71 -41 0 -5 -49 -9 -110 -9
-123 0 -120 -2 -99 73 l10 37 154 0 155 0 0 -30z m1698 -420 c7 -11 22 -20 34
-20 38 0 108 -40 124 -72 13 -25 14 -41 6 -88 -21 -115 -84 -195 -201 -252
-59 -30 -75 -33 -152 -33 l-86 0 -51 43 c-68 57 -95 112 -81 171 19 86 70 160
132 194 31 16 65 23 132 27 81 5 91 7 100 28 12 27 26 28 43 2z m3946 -83 c47
-12 51 -16 67 -62 26 -75 26 -76 -23 -60 -146 47 -173 61 -176 85 -7 47 41 61
132 37z m690 2 c64 -29 31 -78 -61 -94 l-43 -7 15 44 c9 23 17 49 20 56 5 15
36 16 69 1z m-3890 -16 c-18 -41 -16 -100 5 -141 23 -44 83 -92 116 -92 18 1
17 3 -8 24 -65 53 -86 131 -52 196 l16 30 105 0 c119 0 153 -12 184 -63 26
-42 26 -121 1 -163 -33 -54 -70 -64 -241 -64 -162 0 -184 5 -229 54 -52 56
-34 176 33 217 41 25 81 26 70 2z m2749 -162 c9 -10 7 -16 -12 -32 -33 -27
-168 -28 -202 0 -18 14 -21 22 -12 32 15 19 208 19 226 0z"/>
</g>
</svg>
